<?xml version="1.0" standalone="no"?><!DOCTYPE svg PUBLIC "-//W3C//DTD SVG 1.1//EN"
        "http://www.w3.org/Graphics/SVG/1.1/DTD/svg11.dtd">
<svg xmlns:xlink="http://www.w3.org/1999/xlink" t="1554310915024" class="icon" style="" viewBox="0 0 1024 1024"
     version="1.1" xmlns="http://www.w3.org/2000/svg" p-id="1783" width="18" height="18">
    <defs>
        <style type="text/css"></style>
    </defs>
    <path d="M507.380796 573.065797c32.361035 0 58.83806 26.477025 58.83806 58.83806 0 20.593014-11.768021 40.818661-29.41903 49.644677l0 68.031443c0 17.651009-11.768021 29.41903-29.41903 29.41903-17.651009 0-29.41903-11.768021-29.41903-29.41903l0-68.031443c-17.651009-8.826016-29.41903-29.05064-29.41903-49.644677C448.543759 599.542822 475.020784 573.065797 507.380796 573.065797zM507.380796 131.783419c-97.783047 0-176.513156 78.730109-176.513156 176.513156l0 117.675096c-64.721047 0-117.675096 52.954049-117.675096 117.675096l0 235.351216c0 64.72207 52.954049 117.675096 117.675096 117.675096l353.026312 0c64.721047 0 117.675096-52.954049 117.675096-117.675096l0-235.351216c0-64.721047-52.954049-117.675096-117.675096-117.675096L389.7057 425.971671l0-117.675096c0-66.963111 50.713009-117.675096 117.675096-117.675096 66.963111 0 117.675096 50.713009 117.675096 117.675096l0 117.675096 58.83806 0 0-117.675096C683.893952 210.513528 605.163843 131.783419 507.380796 131.783419z"
          p-id="1784" fill="#6f6f6f"></path>
</svg>